<?xml version="1.0" encoding="utf-8"?>
<svg viewBox="64 484.6000061035156 204.19998168945312 196.50009155273438" width="204.19998168945312" height="196.50009155273438" xmlns="http://www.w3.org/2000/svg"><g transform="matrix(1, 0, 0, 1, 5.684341886080802e-14, 0)"><path d="M264.6,536.8L70.1,485c-1.6-0.4-3.3,0-4.5,1.2c-1.2,1.2-1.6,2.9-1.2,4.5c51,184.2,54.2,187.5,55.3,188.5&#10;&#9;&#9;&#9;c1.3,1.3,3.3,1.9,6.8,1.9c0,0,0,0,0,0c26.1,0,108-25.5,141.3-138.5c0.4-1.2,0.2-2.5-0.4-3.6C266.8,537.9,265.8,537.1,264.6,536.8z&#10;&#9;&#9;&#9; M226.6,536.2c-0.7,4.2-14.5,77.2-107.5,113.3C108.5,614.2,89.7,547.3,75.5,496L226.6,536.2z M126.5,671.9c-0.1,0-0.2,0-0.4,0&#10;&#9;&#9;&#9;c-0.9-2.4-2.4-7.1-4.4-13.5c95.4-36.7,111.8-109,113.7-119.8l22.1,5.9C225.1,648.3,150.5,671.9,126.5,671.9z" transform="matrix(1, 0, 0, 1, 5.684341886080802e-14, 0)" style="fill: rgb(204, 204, 204); opacity: 1;"/><path d="M140.2,576.9c-12.7,0-23,10.3-23,23c0,12.7,10.3,23,23,23c12.7,0,23-10.3,23-23C163.3,587.3,152.9,576.9,140.2,576.9z&#10;&#9;&#9;&#9; M140.2,613.8c-7.6,0-13.8-6.2-13.8-13.8c0-7.6,6.2-13.8,13.8-13.8c7.6,0,13.8,6.2,13.8,13.8C154.1,607.6,147.9,613.8,140.2,613.8&#10;&#9;&#9;&#9;z" transform="matrix(1, 0, 0, 1, 5.684341886080802e-14, 0)" style="fill: rgb(204, 204, 204); opacity: 1;"/><path d="M137.9,568.9c8.9,0,16.1-7.2,16.1-16.1s-7.2-16.1-16.1-16.1s-16.1,7.2-16.1,16.1S129.1,568.9,137.9,568.9z M137.9,545.9&#10;&#9;&#9;&#9;c3.8,0,6.9,3.1,6.9,6.9s-3.1,6.9-6.9,6.9c-3.8,0-6.9-3.1-6.9-6.9S134.1,545.9,137.9,545.9z" transform="matrix(1, 0, 0, 1, 5.684341886080802e-14, 0)" style="fill: rgb(204, 204, 204); opacity: 1;"/><path d="M177.1,583.8c12.7,0,23-10.3,23-23c0-12.7-10.3-23-23-23s-23,10.3-23,23C154.1,573.5,164.4,583.8,177.1,583.8z M177.1,547&#10;&#9;&#9;&#9;c7.6,0,13.8,6.2,13.8,13.8c0,7.6-6.2,13.8-13.8,13.8s-13.8-6.2-13.8-13.8C163.3,553.2,169.5,547,177.1,547z" transform="matrix(1, 0, 0, 1, 5.684341886080802e-14, 0)" style="fill: rgb(204, 204, 204); opacity: 1;"/><path d="M104.6,509c-9.5,0-17.3,7.7-17.3,17.3c0,9.5,7.7,17.3,17.3,17.3s17.3-7.7,17.3-17.3C121.8,516.8,114.1,509,104.6,509z&#10;&#9;&#9;&#9; M104.6,534.3c-4.4,0-8.1-3.6-8.1-8.1c0-4.4,3.6-8.1,8.1-8.1c4.4,0,8.1,3.6,8.1,8.1C112.6,530.7,109,534.3,104.6,534.3z" transform="matrix(1, 0, 0, 1, 5.684341886080802e-14, 0)" style="fill: rgb(204, 204, 204); opacity: 1;"/></g></svg>